<?xml version="1.0" encoding="utf-8" ?>
<svg baseProfile="full" height="100%" version="1.1" width="100%" xmlns="http://www.w3.org/2000/svg" xmlns:ev="http://www.w3.org/2001/xml-events" xmlns:xlink="http://www.w3.org/1999/xlink"><defs /><line stroke="rgb(10%,10%,16%)" x1="1166.019" x2="1206.6733" y1="622.64764" y2="556.89349" /><line stroke="rgb(10%,10%,16%)" x1="779.93878" x2="865.0" y1="1821.9008" y2="1825.4261" /><line stroke="rgb(10%,10%,16%)" x1="2371.6362" x2="2372.1809" y1="1921.6028" y2="1878.0593" /><line stroke="rgb(10%,10%,16%)" x1="337.99704" x2="379.00925" y1="1263.9934" y2="1295.1062" /><line stroke="rgb(10%,10%,16%)" x1="337.99704" x2="354.2605" y1="1263.9934" y2="1211.6676" /><line stroke="rgb(10%,10%,16%)" x1="209.3036" x2="364.0" y1="1432.9919" y2="1436.4261" /><line stroke="rgb(10%,10%,16%)" x1="209.3036" x2="200.0" y1="1432.9919" y2="1513.4261" /><line stroke="rgb(10%,10%,16%)" x1="435.0" x2="441.94174" y1="1073.4261" y2="1129.6432" /><line stroke="rgb(10%,10%,16%)" x1="435.0" x2="336.5686" y1="1073.4261" y2="1073.7568" /><line stroke="rgb(10%,10%,16%)" x1="435.0" x2="563.0" y1="1073.4261" y2="1056.4261" /><line stroke="rgb(10%,10%,16%)" x1="563.0" x2="622.63318" y1="1056.4261" y2="1058.6021" /><line stroke="rgb(10%,10%,16%)" x1="692.0" x2="503.0" y1="1212.4261" y2="1219.4261" /><line stroke="rgb(10%,10%,16%)" x1="692.0" x2="696.0" y1="1212.4261" y2="1128.4261" /><line stroke="rgb(10%,10%,16%)" x1="692.0" x2="694.0" y1="1212.4261" y2="1297.4261" /><line stroke="rgb(10%,10%,16%)" x1="690.0" x2="622.63318" y1="1078.4261" y2="1058.6021" /><line stroke="rgb(10%,10%,16%)" x1="690.0" x2="696.0" y1="1078.4261" y2="1128.4261" /><line stroke="rgb(10%,10%,16%)" x1="642.20929" x2="645.78894" y1="484.30698" y2="545.31561" /><line stroke="rgb(10%,10%,16%)" x1="364.0" x2="369.10974" y1="1436.4261" y2="1466.226" /><line stroke="rgb(10%,10%,16%)" x1="248.2814" x2="252.43712" y1="547.88849" y2="597.89886" /><line stroke="rgb(10%,10%,16%)" x1="248.2814" x2="437.6991" y1="547.88849" y2="549.81561" /><line stroke="rgb(10%,10%,16%)" x1="945.52765" x2="958.39197" y1="553.03418" y2="690.68243" /><line stroke="rgb(10%,10%,16%)" x1="945.52765" x2="740.98492" y1="553.03418" y2="542.74274" /><line stroke="rgb(10%,10%,16%)" x1="945.52765" x2="1045.8694" y1="553.03418" y2="555.60706" /><line stroke="rgb(10%,10%,16%)" x1="395.27271" x2="338.0" y1="1971.8074" y2="1971.4261" /><line stroke="rgb(10%,10%,16%)" x1="132.0" x2="332.0" y1="1831.4261" y2="1830.4261" /><line stroke="rgb(10%,10%,16%)" x1="132.0" x2="123.71171" y1="1831.4261" y2="1872.425" /><line stroke="rgb(10%,10%,16%)" x1="224.15285" x2="336.5686" y1="1051.1543" y2="1073.7568" /><line stroke="rgb(10%,10%,16%)" x1="1564.1202" x2="1484.9242" y1="380.10999" y2="406.98004" /><line stroke="rgb(10%,10%,16%)" x1="2235.8716" x2="2237.1055" y1="1927.2596" y2="1876.7728" /><line stroke="rgb(10%,10%,16%)" x1="504.2814" x2="505.58136" y1="545.31561" y2="489.00443" /><line stroke="rgb(10%,10%,16%)" x1="504.2814" x2="645.78894" y1="545.31561" y2="545.31561" /><line stroke="rgb(10%,10%,16%)" x1="504.2814" x2="506.28845" y1="545.31561" y2="600.72729" /><line stroke="rgb(10%,10%,16%)" x1="504.2814" x2="437.6991" y1="545.31561" y2="549.81561" /><line stroke="rgb(10%,10%,16%)" x1="1520.9263" x2="1435.4197" y1="1051.9254" y2="1050.1061" /><line stroke="rgb(10%,10%,16%)" x1="1520.9263" x2="1495.4562" y1="1051.9254" y2="864.53857" /><line stroke="rgb(10%,10%,16%)" x1="1520.9263" x2="1542.4321" y1="1051.9254" y2="1131.9287" /><line stroke="rgb(10%,10%,16%)" x1="229.0" x2="250.3158" y1="1754.4261" y2="1730.684" /><line stroke="rgb(10%,10%,16%)" x1="229.0" x2="161.91679" y1="1754.4261" y2="1759.6292" /><line stroke="rgb(10%,10%,16%)" x1="229.0" x2="202.61307" y1="1754.4261" y2="1728.1899" /><line stroke="rgb(10%,10%,16%)" x1="229.0" x2="326.0" y1="1754.4261" y2="1755.4261" /><line stroke="rgb(10%,10%,16%)" x1="338.0" x2="332.0" y1="1971.4261" y2="1830.4261" /><line stroke="rgb(10%,10%,16%)" x1="936.0" x2="1006.0" y1="1744.4261" y2="1739.4261" /><line stroke="rgb(10%,10%,16%)" x1="936.0" x2="838.0" y1="1744.4261" y2="1738.4261" /><line stroke="rgb(10%,10%,16%)" x1="936.0" x2="933.38098" y1="1744.4261" y2="1803.516" /><line stroke="rgb(10%,10%,16%)" x1="936.0" x2="931.47638" y1="1744.4261" y2="1692.3154" /><line stroke="rgb(10%,10%,16%)" x1="326.0" x2="325.26913" y1="1755.4261" y2="1675.5297" /><line stroke="rgb(10%,10%,16%)" x1="326.0" x2="332.0" y1="1755.4261" y2="1830.4261" /><line stroke="rgb(10%,10%,16%)" x1="326.0" x2="411.0" y1="1755.4261" y2="1752.4261" /><line stroke="rgb(10%,10%,16%)" x1="537.0" x2="479.4184" y1="1822.4261" y2="1821.9008" /><line stroke="rgb(10%,10%,16%)" x1="537.0" x2="537.40118" y1="1822.4261" y2="1795.7378" /><line stroke="rgb(10%,10%,16%)" x1="537.0" x2="605.99054" y1="1822.4261" y2="1821.1936" /><line stroke="rgb(10%,10%,16%)" x1="537.0" x2="540.22955" y1="1822.4261" y2="1860.7916" /><line stroke="rgb(10%,10%,16%)" x1="1375.0" x2="1349.8668" y1="1753.4261" y2="1728.5627" /><line stroke="rgb(10%,10%,16%)" x1="1375.0" x2="1523.1356" y1="1753.4261" y2="1751.989" /><line stroke="rgb(10%,10%,16%)" x1="1375.0" x2="1396.5359" y1="1753.4261" y2="1727.1484" /><line stroke="rgb(10%,10%,16%)" x1="1375.0" x2="1184.0" y1="1753.4261" y2="1751.4261" /><line stroke="rgb(10%,10%,16%)" x1="537.0" x2="537.40118" y1="1750.4261" y2="1795.7378" /><line stroke="rgb(10%,10%,16%)" x1="537.0" x2="480.0" y1="1750.4261" y2="1745.4261" /><line stroke="rgb(10%,10%,16%)" x1="537.0" x2="838.0" y1="1750.4261" y2="1738.4261" /><line stroke="rgb(10%,10%,16%)" x1="692.96466" x2="735.39105" y1="1371.4738" y2="1391.9799" /><line stroke="rgb(10%,10%,16%)" x1="692.96466" x2="694.0" y1="1371.4738" y2="1297.4261" /><line stroke="rgb(10%,10%,16%)" x1="1185.111" x2="1238.8341" y1="859.52838" y2="863.06433" /><line stroke="rgb(10%,10%,16%)" x1="2324.967" x2="2323.2964" y1="1923.017" y2="1886.4022" /><line stroke="rgb(10%,10%,16%)" x1="646.29559" x2="598.54633" y1="1131.7645" y2="1146.5284" /><line stroke="rgb(10%,10%,16%)" x1="646.29559" x2="696.0" y1="1131.7645" y2="1128.4261" /><line stroke="rgb(10%,10%,16%)" x1="499.9245" x2="562.85699" y1="1259.7509" y2="1332.5828" /><line stroke="rgb(10%,10%,16%)" x1="499.9245" x2="503.0" y1="1259.7509" y2="1219.4261" /><line stroke="rgb(10%,10%,16%)" x1="2088.7935" x2="2090.364" y1="1047.6188" y2="1008.2625" /><line stroke="rgb(10%,10%,16%)" x1="354.2605" x2="503.0" y1="1211.6676" y2="1219.4261" /><line stroke="rgb(10%,10%,16%)" x1="2234.4575" x2="2230.4492" y1="1046.2046" y2="1015.5396" /><line stroke="rgb(10%,10%,16%)" x1="2234.4575" x2="2348.7031" y1="1046.2046" y2="1061.0219" /><line stroke="rgb(10%,10%,16%)" x1="2234.4575" x2="2237.7266" y1="1046.2046" y2="1097.4076" /><line stroke="rgb(10%,10%,16%)" x1="1484.9242" x2="1493.5477" y1="406.98004" y2="493.85831" /><line stroke="rgb(10%,10%,16%)" x1="838.0" x2="842.16418" y1="1738.4261" y2="1695.3286" /><line stroke="rgb(10%,10%,16%)" x1="424.97116" x2="422.07523" y1="1376.4235" y2="1339.3732" /><line stroke="rgb(10%,10%,16%)" x1="740.98492" x2="741.755" y1="542.74274" y2="489.00443" /><line stroke="rgb(10%,10%,16%)" x1="740.98492" x2="645.78894" y1="542.74274" y2="545.31561" /><line stroke="rgb(10%,10%,16%)" x1="1492.2614" x2="1493.5477" y1="704.83319" y2="493.85831" /><line stroke="rgb(10%,10%,16%)" x1="1492.2614" x2="1540.0786" y1="704.83319" y2="701.84357" /><line stroke="rgb(10%,10%,16%)" x1="1492.2614" x2="1495.4562" y1="704.83319" y2="864.53857" /><line stroke="rgb(10%,10%,16%)" x1="1207.7384" x2="1251.6985" y1="1214.496" y2="1223.2654" /><line stroke="rgb(10%,10%,16%)" x1="2257.7385" x2="2247.1853" y1="258.71506" y2="214.647" /><line stroke="rgb(10%,10%,16%)" x1="2257.7385" x2="2044.9528" y1="258.71506" y2="245.7597" /><line stroke="rgb(10%,10%,16%)" x1="2146.762" x2="2266.9844" y1="84.063225" y2="70.397217" /><line stroke="rgb(10%,10%,16%)" x1="2146.762" x2="2029.3965" y1="84.063225" y2="93.024635" /><line stroke="rgb(10%,10%,16%)" x1="2067.5803" x2="2032.2249" y1="199.09065" y2="160.90689" /><line stroke="rgb(10%,10%,16%)" x1="2067.5803" x2="2044.9528" y1="199.09065" y2="245.7597" /><line stroke="rgb(10%,10%,16%)" x1="2175.0605" x2="2174.0513" y1="1041.9619" y2="1010.0817" /><line stroke="rgb(10%,10%,16%)" x1="1343.5029" x2="1337.8894" y1="515.87451" y2="558.17993" /><line stroke="rgb(10%,10%,16%)" x1="237.58788" x2="200.0" y1="1512.188" y2="1513.4261" /><line stroke="rgb(10%,10%,16%)" x1="2032.2249" x2="2029.3965" y1="160.90689" y2="93.024635" /><line stroke="rgb(10%,10%,16%)" x1="2032.2249" x2="1820.3015" y1="160.90689" y2="195.40605" /><line stroke="rgb(10%,10%,16%)" x1="1120.7643" x2="1118.6429" y1="1697.45" y2="1629.5676" /><line stroke="rgb(10%,10%,16%)" x1="1120.7643" x2="1117.0" y1="1697.45" y2="1748.4261" /><line stroke="rgb(10%,10%,16%)" x1="1530.8862" x2="1523.1356" y1="1831.8002" y2="1751.989" /><line stroke="rgb(10%,10%,16%)" x1="704.27838" x2="842.16418" y1="1618.9611" y2="1695.3286" /><line stroke="rgb(10%,10%,16%)" x1="379.00925" x2="422.07523" y1="1295.1062" y2="1339.3732" /><line stroke="rgb(10%,10%,16%)" x1="437.6991" x2="421.43564" y1="549.81561" y2="599.31311" /><line stroke="rgb(10%,10%,16%)" x1="161.91679" x2="119.0" y1="1759.6292" y2="1753.4261" /><line stroke="rgb(10%,10%,16%)" x1="931.47638" x2="934.0" y1="1692.3154" y2="1648.4261" /><line stroke="rgb(10%,10%,16%)" x1="1313.0" x2="1264.5629" y1="1503.4261" y2="1498.5618" /><line stroke="rgb(10%,10%,16%)" x1="411.53613" x2="411.0" y1="1698.157" y2="1752.4261" /><line stroke="rgb(10%,10%,16%)" x1="1184.0" x2="1184.4382" y1="1751.4261" y2="1818.6796" /><line stroke="rgb(10%,10%,16%)" x1="1184.0" x2="1219.7592" y1="1751.4261" y2="1696.0358" /><line stroke="rgb(10%,10%,16%)" x1="1184.0" x2="1117.0" y1="1751.4261" y2="1748.4261" /><line stroke="rgb(10%,10%,16%)" x1="411.0" x2="480.0" y1="1752.4261" y2="1745.4261" /><line stroke="rgb(10%,10%,16%)" x1="1184.4382" x2="1238.8511" y1="1818.6796" y2="1832.5073" /><line stroke="rgb(10%,10%,16%)" x1="869.03424" x2="865.0" y1="1869.984" y2="1825.4261" /><line stroke="rgb(10%,10%,16%)" x1="113.13708" x2="113.0" y1="1442.8915" y2="1514.4261" /><line stroke="rgb(10%,10%,16%)" x1="933.38098" x2="865.0" y1="1803.516" y2="1825.4261" /><line stroke="rgb(10%,10%,16%)" x1="1059.246" x2="1060.0" y1="1800.6875" y2="1748.4261" /><line stroke="rgb(10%,10%,16%)" x1="1540.0786" x2="1493.5477" y1="486.17599" y2="493.85831" /><line stroke="rgb(10%,10%,16%)" x1="1710.9547" x2="1523.1356" y1="1744.2704" y2="1751.989" /><line stroke="rgb(10%,10%,16%)" x1="1710.9547" x2="1712.2412" y1="1744.2704" y2="1326.1799" /><line stroke="rgb(10%,10%,16%)" x1="1710.9547" x2="1887.1959" y1="1744.2704" y2="1750.7025" /><line stroke="rgb(10%,10%,16%)" x1="1222.5876" x2="1219.7592" y1="1609.7687" y2="1696.0358" /><line stroke="rgb(10%,10%,16%)" x1="866.20581" x2="863.0" y1="1135.3" y2="1091.4261" /><line stroke="rgb(10%,10%,16%)" x1="562.85699" x2="639.22455" y1="1332.5828" y2="1292.2777" /><line stroke="rgb(10%,10%,16%)" x1="1006.92" x2="1006.0" y1="1696.0358" y2="1739.4261" /><line stroke="rgb(10%,10%,16%)" x1="962.0" x2="958.39197" y1="1058.4261" y2="690.68243" /><line stroke="rgb(10%,10%,16%)" x1="962.0" x2="863.0" y1="1058.4261" y2="1091.4261" /><line stroke="rgb(10%,10%,16%)" x1="962.0" x2="948.0" y1="1058.4261" y2="1482.4261" /><line stroke="rgb(10%,10%,16%)" x1="738.92657" x2="854.19098" y1="802.25275" y2="801.31561" /><line stroke="rgb(10%,10%,16%)" x1="738.92657" x2="705.69257" y1="802.25275" y2="860.23547" /><line stroke="rgb(10%,10%,16%)" x1="2348.7031" x2="2349.0088" y1="1061.0219" y2="1080.1458" /><line stroke="rgb(10%,10%,16%)" x1="934.0" x2="935.0" y1="1648.4261" y2="1523.4261" /><line stroke="rgb(10%,10%,16%)" x1="110.30865" x2="123.71171" y1="1939.2804" y2="1872.425" /><line stroke="rgb(10%,10%,16%)" x1="1435.4197" x2="1306.7333" y1="1050.1061" y2="1101.3589" /><line stroke="rgb(10%,10%,16%)" x1="2090.364" x2="2090.364" y1="1008.2625" y2="1008.2625" /><line stroke="rgb(10%,10%,16%)" x1="2090.364" x2="2230.4492" y1="1008.2625" y2="1015.5396" /><line stroke="rgb(10%,10%,16%)" x1="2090.364" x2="2044.9528" y1="1008.2625" y2="245.7597" /><line stroke="rgb(10%,10%,16%)" x1="1337.8894" x2="1350.574" y1="558.17993" y2="603.55573" /><line stroke="rgb(10%,10%,16%)" x1="1337.8894" x2="1206.6733" y1="558.17993" y2="556.89349" /><line stroke="rgb(10%,10%,16%)" x1="2237.7266" x2="2272.6411" y1="1097.4076" y2="1105.6016" /><line stroke="rgb(10%,10%,16%)" x1="480.0" x2="484.36813" y1="1745.4261" y2="1691.7931" /><line stroke="rgb(10%,10%,16%)" x1="1117.0" x2="1060.0" y1="1748.4261" y2="1748.4261" /><line stroke="rgb(10%,10%,16%)" x1="1006.0" x2="1060.0" y1="1739.4261" y2="1748.4261" /><line stroke="rgb(10%,10%,16%)" x1="639.22455" x2="694.0" y1="1292.2777" y2="1297.4261" /><line stroke="rgb(10%,10%,16%)" x1="1208.4454" x2="1206.6733" y1="508.09631" y2="556.89349" /><line stroke="rgb(10%,10%,16%)" x1="1208.4454" x2="1115.1074" y1="508.09631" y2="432.43588" /><line stroke="rgb(10%,10%,16%)" x1="1813.8694" x2="1712.2412" y1="1138.3608" y2="1326.1799" /><line stroke="rgb(10%,10%,16%)" x1="1813.8694" x2="1820.3015" y1="1138.3608" y2="195.40605" /><line stroke="rgb(10%,10%,16%)" x1="1495.4562" x2="1391.9196" y1="864.53857" y2="857.91864" /><line stroke="rgb(10%,10%,16%)" x1="2356.0798" x2="2329.7285" y1="1812.7084" y2="1818.8834" /><line stroke="rgb(10%,10%,16%)" x1="2323.2964" x2="2372.1809" y1="1886.4022" y2="1878.0593" /><line stroke="rgb(10%,10%,16%)" x1="2323.2964" x2="2329.7285" y1="1886.4022" y2="1818.8834" /><line stroke="rgb(10%,10%,16%)" x1="2323.2964" x2="2237.1055" y1="1886.4022" y2="1876.7728" /><line stroke="rgb(10%,10%,16%)" x1="1238.8341" x2="1391.9196" y1="863.06433" y2="857.91864" /><line stroke="rgb(10%,10%,16%)" x1="1238.8341" x2="1247.8392" y1="863.06433" y2="1038.0192" /><line stroke="rgb(10%,10%,16%)" x1="859.33667" x2="958.39197" y1="694.54175" y2="690.68243" /><line stroke="rgb(10%,10%,16%)" x1="859.33667" x2="854.19098" y1="694.54175" y2="801.31561" /><line stroke="rgb(10%,10%,16%)" x1="859.33667" x2="850.33167" y1="694.54175" y2="626.36084" /><line stroke="rgb(10%,10%,16%)" x1="1251.6985" x2="1264.5629" y1="1223.2654" y2="1498.5618" /><line stroke="rgb(10%,10%,16%)" x1="1251.6985" x2="1252.9849" y1="1223.2654" y2="1119.0643" /><line stroke="rgb(10%,10%,16%)" x1="1206.6733" x2="1045.8694" y1="556.89349" y2="555.60706" /><line stroke="rgb(10%,10%,16%)" x1="1264.5629" x2="1045.1039" y1="1498.5618" y2="1518.5519" /><line stroke="rgb(10%,10%,16%)" x1="1252.9849" x2="1306.7333" y1="1119.0643" y2="1101.3589" /><line stroke="rgb(10%,10%,16%)" x1="1252.9849" x2="1207.7384" y1="1119.0643" y2="1123.9863" /><line stroke="rgb(10%,10%,16%)" x1="1252.9849" x2="1247.8392" y1="1119.0643" y2="1038.0192" /><line stroke="rgb(10%,10%,16%)" x1="1542.4321" x2="1712.2412" y1="1131.9287" y2="1326.1799" /><line stroke="rgb(10%,10%,16%)" x1="497.09607" x2="496.0" y1="1174.1909" y2="1143.4261" /><line stroke="rgb(10%,10%,16%)" x1="497.09607" x2="503.0" y1="1174.1909" y2="1219.4261" /><line stroke="rgb(10%,10%,16%)" x1="894.49005" x2="948.0" y1="1476.8326" y2="1482.4261" /><line stroke="rgb(10%,10%,16%)" x1="549.422" x2="598.54633" y1="1136.7142" y2="1146.5284" /><line stroke="rgb(10%,10%,16%)" x1="1200.6674" x2="1247.8392" y1="1024.9913" y2="1038.0192" /><line stroke="rgb(10%,10%,16%)" x1="496.0" x2="441.94174" y1="1143.4261" y2="1129.6432" /><line stroke="rgb(10%,10%,16%)" x1="113.0" x2="200.0" y1="1514.4261" y2="1513.4261" /><line stroke="rgb(10%,10%,16%)" x1="113.0" x2="119.0" y1="1514.4261" y2="1753.4261" /><line stroke="rgb(10%,10%,16%)" x1="696.0" x2="863.0" y1="1128.4261" y2="1091.4261" /><line stroke="rgb(10%,10%,16%)" x1="935.0" x2="948.0" y1="1523.4261" y2="1482.4261" /><line stroke="rgb(10%,10%,16%)" x1="2237.1055" x2="2086.593" y1="1876.7728" y2="1861.3357" /><line stroke="rgb(10%,10%,16%)" x1="2087.8794" x2="2086.593" y1="1708.2502" y2="1861.3357" /><line stroke="rgb(10%,10%,16%)" x1="2087.8794" x2="1887.1959" y1="1708.2502" y2="1750.7025" /><line stroke="rgb(10%,10%,16%)" x1="863.0" x2="857.01343" y1="1091.4261" y2="1041.2549" /><line stroke="rgb(10%,10%,16%)" x1="1887.1959" x2="1897.8746" y1="1750.7025" y2="1831.0931" /><line stroke="rgb(10%,10%,16%)" x1="737.51239" x2="694.0" y1="1294.399" y2="1297.4261" /><line stroke="rgb(10%,10%,16%)" x1="850.33167" x2="809.63727" y1="626.36084" y2="620.52631" /><line stroke="rgb(10%,10%,16%)" x1="1045.8694" x2="1049.3464" y1="555.60706" y2="599.31311" /><line stroke="rgb(10%,10%,16%)" x1="1391.9196" x2="1390.1719" y1="857.91864" y2="824.17303" /><line stroke="rgb(10%,10%,16%)" x1="948.0" x2="1045.1039" y1="1482.4261" y2="1518.5519" /></svg>