<?xml version="1.0" encoding="utf-8" ?>
<svg baseProfile="full" height="100%" version="1.1" width="100%" xmlns="http://www.w3.org/2000/svg" xmlns:ev="http://www.w3.org/2001/xml-events" xmlns:xlink="http://www.w3.org/1999/xlink"><defs /><line stroke="rgb(10%,10%,16%)" x1="542.26251" x2="507.79105" y1="1240.1885" y2="1241.5143" /><line stroke="rgb(10%,10%,16%)" x1="542.26251" x2="541.875" y1="1240.1885" y2="1313.0125" /><line stroke="rgb(10%,10%,16%)" x1="251.90678" x2="251.24387" y1="1728.0922" y2="1749.3054" /><line stroke="rgb(10%,10%,16%)" x1="326.81589" x2="324.16425" y1="1693.6207" y2="1726.7664" /><line stroke="rgb(10%,10%,16%)" x1="432.21899" x2="502.03125" y1="1720.8002" y2="1719.8875" /><line stroke="rgb(10%,10%,16%)" x1="432.21899" x2="434.87067" y1="1720.8002" y2="1743.3391" /><line stroke="rgb(10%,10%,16%)" x1="324.16425" x2="320.18677" y1="1750.6312" y2="1782.451" /><line stroke="rgb(10%,10%,16%)" x1="324.16425" x2="324.16425" y1="1750.6312" y2="1726.7664" /><line stroke="rgb(10%,10%,16%)" x1="324.16425" x2="288.36697" y1="1750.6312" y2="1750.6312" /><line stroke="rgb(10%,10%,16%)" x1="324.16425" x2="369.24231" y1="1750.6312" y2="1746.6537" /><line stroke="rgb(10%,10%,16%)" x1="616.50873" x2="641.6994" y1="1046.618" y2="1047.2809" /><line stroke="rgb(10%,10%,16%)" x1="616.50873" x2="610.54248" y1="1046.618" y2="881.5528" /><line stroke="rgb(10%,10%,16%)" x1="434.87067" x2="369.24231" y1="1743.3391" y2="1746.6537" /><line stroke="rgb(10%,10%,16%)" x1="1393.5897" x2="1393.4423" y1="1746.3317" y2="1724.7776" /><line stroke="rgb(10%,10%,16%)" x1="1393.5897" x2="1379.5312" y1="1746.3317" y2="1782.2312" /><line stroke="rgb(10%,10%,16%)" x1="1393.5897" x2="1312.2355" y1="1746.3317" y2="1745.9908" /><line stroke="rgb(10%,10%,16%)" x1="458.90625" x2="405.70251" y1="1820.6687" y2="1824.8774" /><line stroke="rgb(10%,10%,16%)" x1="610.54248" x2="564.13861" y1="881.5528" y2="879.56403" /><line stroke="rgb(10%,10%,16%)" x1="347.8125" x2="317.42416" y1="1822.5437" y2="1824.66" /><line stroke="rgb(10%,10%,16%)" x1="347.8125" x2="405.70251" y1="1822.5437" y2="1824.8774" /><line stroke="rgb(10%,10%,16%)" x1="890.95453" x2="888.30286" y1="905.4176" y2="1007.5062" /><line stroke="rgb(10%,10%,16%)" x1="890.95453" x2="892.9433" y1="905.4176" y2="876.24945" /><line stroke="rgb(10%,10%,16%)" x1="202.96875" x2="205.5029" y1="1860.5125" y2="1826.2032" /><line stroke="rgb(10%,10%,16%)" x1="796.875" x2="797.81531" y1="1690.3562" y2="1730.7438" /><line stroke="rgb(10%,10%,16%)" x1="219.42406" x2="210.8062" y1="339.29031" y2="494.41187" /><line stroke="rgb(10%,10%,16%)" x1="219.42406" x2="363.939" y1="339.29031" y2="339.95322" /><line stroke="rgb(10%,10%,16%)" x1="362.61319" x2="458.7355" y1="380.3909" y2="378.40216" /><line stroke="rgb(10%,10%,16%)" x1="362.61319" x2="363.939" y1="380.3909" y2="339.95322" /><line stroke="rgb(10%,10%,16%)" x1="210.1433" x2="353.3324" y1="556.06274" y2="549.43359" /><line stroke="rgb(10%,10%,16%)" x1="210.1433" x2="210.8062" y1="556.06274" y2="494.41187" /><line stroke="rgb(10%,10%,16%)" x1="1176.007" x2="1103.0865" y1="1846.7535" y2="1843.439" /><line stroke="rgb(10%,10%,16%)" x1="713.4375" x2="745.77667" y1="1747.075" y2="1747.6481" /><line stroke="rgb(10%,10%,16%)" x1="310.78125" x2="317.42416" y1="1860.0437" y2="1824.66" /><line stroke="rgb(10%,10%,16%)" x1="1234.3433" x2="1235.6691" y1="1710.8564" y2="1740.0245" /><line stroke="rgb(10%,10%,16%)" x1="1234.3433" x2="1234.2188" y1="1710.8564" y2="1687.5437" /><line stroke="rgb(10%,10%,16%)" x1="1056.6827" x2="1103.0865" y1="1848.0793" y2="1843.439" /><line stroke="rgb(10%,10%,16%)" x1="933.38092" x2="1009.6158" y1="1007.5062" y2="1008.1691" /><line stroke="rgb(10%,10%,16%)" x1="933.38092" x2="888.30286" y1="1007.5062" y2="1007.5062" /><line stroke="rgb(10%,10%,16%)" x1="1085.8508" x2="1086.0938" y1="1730.7438" y2="1689.4187" /><line stroke="rgb(10%,10%,16%)" x1="1085.8508" x2="1104.0809" y1="1730.7438" y2="1730.7438" /><line stroke="rgb(10%,10%,16%)" x1="1085.8508" x2="950.28522" y1="1730.7438" y2="1730.7438" /><line stroke="rgb(10%,10%,16%)" x1="860.46051" x2="937.3584" y1="1383.3777" y2="1386.6921" /><line stroke="rgb(10%,10%,16%)" x1="860.46051" x2="869.74133" y1="1383.3777" y2="1229.5819" /><line stroke="rgb(10%,10%,16%)" x1="860.46051" x2="865.10089" y1="1383.3777" y2="1450.3318" /><line stroke="rgb(10%,10%,16%)" x1="871.06714" x2="898.59375" y1="1512.6456" y2="1652.8562" /><line stroke="rgb(10%,10%,16%)" x1="871.06714" x2="865.10089" y1="1512.6456" y2="1450.3318" /><line stroke="rgb(10%,10%,16%)" x1="871.06714" x2="852.1875" y1="1512.6456" y2="1653.325" /><line stroke="rgb(10%,10%,16%)" x1="871.06714" x2="937.3584" y1="1512.6456" y2="1516.623" /><line stroke="rgb(10%,10%,16%)" x1="869.74133" x2="887.63995" y1="1229.5819" y2="1028.0564" /><line stroke="rgb(10%,10%,16%)" x1="869.74133" x2="936.03259" y1="1229.5819" y2="1226.2673" /><line stroke="rgb(10%,10%,16%)" x1="865.10089" x2="786.21436" y1="1450.3318" y2="1445.0284" /><line stroke="rgb(10%,10%,16%)" x1="747.65625" x2="745.77667" y1="1783.1687" y2="1747.6481" /><line stroke="rgb(10%,10%,16%)" x1="747.65625" x2="747.76544" y1="1783.1687" y2="1843.439" /><line stroke="rgb(10%,10%,16%)" x1="786.21436" x2="737.82172" y1="1445.0284" y2="1446.3544" /><line stroke="rgb(10%,10%,16%)" x1="1281.0938" x2="1282.7358" y1="1686.6062" y2="1712.8452" /><line stroke="rgb(10%,10%,16%)" x1="898.59375" x2="899.24097" y1="1652.8562" y2="1730.7438" /><line stroke="rgb(10%,10%,16%)" x1="898.59375" x2="852.1875" y1="1652.8562" y2="1653.325" /><line stroke="rgb(10%,10%,16%)" x1="1164.375" x2="1166.3948" y1="1692.7" y2="1738.6987" /><line stroke="rgb(10%,10%,16%)" x1="196.22212" x2="246.60349" y1="673.39825" y2="672.73535" /><line stroke="rgb(10%,10%,16%)" x1="532.98169" x2="458.7355" y1="587.2196" y2="676.04993" /><line stroke="rgb(10%,10%,16%)" x1="532.98169" x2="532.98169" y1="587.2196" y2="489.77145" /><line stroke="rgb(10%,10%,16%)" x1="354.65823" x2="353.3324" y1="618.37653" y2="549.43359" /><line stroke="rgb(10%,10%,16%)" x1="354.65823" x2="354.65823" y1="618.37653" y2="675.38696" /><line stroke="rgb(10%,10%,16%)" x1="373.21979" x2="458.7355" y1="678.03864" y2="676.04993" /><line stroke="rgb(10%,10%,16%)" x1="373.21979" x2="354.65823" y1="678.03864" y2="675.38696" /><line stroke="rgb(10%,10%,16%)" x1="737.15881" x2="737.82172" y1="1409.2312" y2="1446.3544" /><line stroke="rgb(10%,10%,16%)" x1="790.3125" x2="747.76544" y1="1845.5125" y2="1843.439" /><line stroke="rgb(10%,10%,16%)" x1="1103.4375" x2="1103.0865" y1="1781.7625" y2="1843.439" /><line stroke="rgb(10%,10%,16%)" x1="1103.4375" x2="1104.0809" y1="1781.7625" y2="1730.7438" /><line stroke="rgb(10%,10%,16%)" x1="680.14832" x2="737.82172" y1="1445.0284" y2="1446.3544" /><line stroke="rgb(10%,10%,16%)" x1="887.63995" x2="780.91107" y1="1028.0564" y2="1030.0452" /><line stroke="rgb(10%,10%,16%)" x1="887.63995" x2="888.30286" y1="1028.0564" y2="1007.5062" /><line stroke="rgb(10%,10%,16%)" x1="699.3728" x2="701.36151" y1="1027.3936" y2="1052.5842" /><line stroke="rgb(10%,10%,16%)" x1="699.3728" x2="780.91107" y1="1027.3936" y2="1030.0452" /><line stroke="rgb(10%,10%,16%)" x1="1269.4775" x2="1267.4889" y1="397.62662" y2="349.89691" /><line stroke="rgb(10%,10%,16%)" x1="1269.4775" x2="1160.7599" y1="397.62662" y2="394.31204" /><line stroke="rgb(10%,10%,16%)" x1="1381.5098" x2="1267.4889" y1="346.58234" y2="349.89691" /><line stroke="rgb(10%,10%,16%)" x1="1381.5098" x2="1397.4197" y1="346.58234" y2="514.96216" /><line stroke="rgb(10%,10%,16%)" x1="1252.2418" x2="1397.4197" y1="514.96216" y2="514.96216" /><line stroke="rgb(10%,10%,16%)" x1="1252.2418" x2="1248.9272" y1="514.96216" y2="571.9726" /><line stroke="rgb(10%,10%,16%)" x1="1012.2675" x2="1099.772" y1="1517.9489" y2="1499.3873" /><line stroke="rgb(10%,10%,16%)" x1="1012.2675" x2="937.3584" y1="1517.9489" y2="1516.623" /><line stroke="rgb(10%,10%,16%)" x1="1099.772" x2="1162.7487" y1="1499.3873" y2="1480.1628" /><line stroke="rgb(10%,10%,16%)" x1="1066.6263" x2="1134.2434" y1="965.74268" y2="941.87787" /><line stroke="rgb(10%,10%,16%)" x1="1066.6263" x2="1009.6158" y1="965.74268" y2="1008.1691" /><line stroke="rgb(10%,10%,16%)" x1="734.50714" x2="737.82172" y1="1472.8708" y2="1446.3544" /><line stroke="rgb(10%,10%,16%)" x1="502.03125" x2="525.6897" y1="1719.8875" y2="1720.8002" /><line stroke="rgb(10%,10%,16%)" x1="541.875" x2="540.93671" y1="1313.0125" y2="1500.0502" /><line stroke="rgb(10%,10%,16%)" x1="270.46835" x2="317.42416" y1="1826.8661" y2="1824.66" /><line stroke="rgb(10%,10%,16%)" x1="270.46835" x2="205.5029" y1="1826.8661" y2="1826.2032" /><line stroke="rgb(10%,10%,16%)" x1="899.24097" x2="849.52252" y1="1730.7438" y2="1730.7438" /><line stroke="rgb(10%,10%,16%)" x1="899.24097" x2="950.28522" y1="1730.7438" y2="1730.7438" /><line stroke="rgb(10%,10%,16%)" x1="797.81531" x2="849.52252" y1="1730.7438" y2="1730.7438" /><line stroke="rgb(10%,10%,16%)" x1="797.81531" x2="746.43958" y1="1730.7438" y2="1731.0753" /><line stroke="rgb(10%,10%,16%)" x1="733.18134" x2="851.17981" y1="789.40796" y2="790.0708" /><line stroke="rgb(10%,10%,16%)" x1="733.18134" x2="729.86676" y1="789.40796" y2="719.80212" /><line stroke="rgb(10%,10%,16%)" x1="871.73004" x2="851.17981" y1="793.38538" y2="790.0708" /><line stroke="rgb(10%,10%,16%)" x1="871.73004" x2="872.39301" y1="793.38538" y2="873.59784" /><line stroke="rgb(10%,10%,16%)" x1="320.18677" x2="317.42416" y1="1782.451" y2="1824.66" /><line stroke="rgb(10%,10%,16%)" x1="288.36697" x2="251.24387" y1="1750.6312" y2="1749.3054" /><line stroke="rgb(10%,10%,16%)" x1="701.36151" x2="641.6994" y1="1052.5842" y2="1047.2809" /><line stroke="rgb(10%,10%,16%)" x1="701.36151" x2="706.66486" y1="1052.5842" y2="1093.6848" /><line stroke="rgb(10%,10%,16%)" x1="872.39301" x2="892.9433" y1="873.59784" y2="876.24945" /><line stroke="rgb(10%,10%,16%)" x1="892.9433" x2="987.73975" y1="876.24945" y2="866.96869" /><line stroke="rgb(10%,10%,16%)" x1="246.60349" x2="296.32193" y1="672.73535" y2="676.71283" /><line stroke="rgb(10%,10%,16%)" x1="296.32193" x2="354.65823" y1="676.71283" y2="675.38696" /><line stroke="rgb(10%,10%,16%)" x1="937.3584" x2="1134.9064" y1="1386.6921" y2="1375.4227" /><line stroke="rgb(10%,10%,16%)" x1="1282.7358" x2="1286.0504" y1="1712.8452" y2="1742.0133" /><line stroke="rgb(10%,10%,16%)" x1="672.1875" x2="747.76544" y1="1844.575" y2="1843.439" /><line stroke="rgb(10%,10%,16%)" x1="458.7355" x2="532.98169" y1="378.40216" y2="489.77145" /><line stroke="rgb(10%,10%,16%)" x1="1099.109" x2="1099.109" y1="499.05225" y2="569.32098" /><line stroke="rgb(10%,10%,16%)" x1="1099.109" x2="1160.7599" y1="499.05225" y2="394.31204" /><line stroke="rgb(10%,10%,16%)" x1="1099.109" x2="1161.4229" y1="569.32098" y2="632.29767" /><line stroke="rgb(10%,10%,16%)" x1="1161.4229" x2="1244.9498" y1="632.29767" y2="634.94934" /><line stroke="rgb(10%,10%,16%)" x1="1248.9272" x2="1244.9498" y1="571.9726" y2="634.94934" /><line stroke="rgb(10%,10%,16%)" x1="525.6897" x2="522.37512" y1="1720.8002" y2="1563.6898" /><line stroke="rgb(10%,10%,16%)" x1="1138.8838" x2="1134.9064" y1="1343.6029" y2="1375.4227" /><line stroke="rgb(10%,10%,16%)" x1="849.52252" x2="852.1875" y1="1730.7438" y2="1653.325" /><line stroke="rgb(10%,10%,16%)" x1="950.625" x2="950.28522" y1="1690.825" y2="1730.7438" /><line stroke="rgb(10%,10%,16%)" x1="522.37512" x2="521.04932" y1="1563.6898" y2="1532.533" /><line stroke="rgb(10%,10%,16%)" x1="521.04932" x2="540.93671" y1="1532.533" y2="1500.0502" /><line stroke="rgb(10%,10%,16%)" x1="1104.0809" x2="1166.3948" y1="1730.7438" y2="1738.6987" /><line stroke="rgb(10%,10%,16%)" x1="746.43958" x2="745.77667" y1="1731.0753" y2="1747.6481" /><line stroke="rgb(10%,10%,16%)" x1="1286.0504" x2="1312.2355" y1="1742.0133" y2="1745.9908" /><line stroke="rgb(10%,10%,16%)" x1="1286.0504" x2="1235.6691" y1="1742.0133" y2="1740.0245" /><line stroke="rgb(10%,10%,16%)" x1="1166.3948" x2="1235.6691" y1="1738.6987" y2="1740.0245" /></svg>