<?xml version="1.0" encoding="utf-8" ?>
<svg baseProfile="full" height="100%" version="1.1" width="100%" xmlns="http://www.w3.org/2000/svg" xmlns:ev="http://www.w3.org/2001/xml-events" xmlns:xlink="http://www.w3.org/1999/xlink"><defs /><line stroke="rgb(10%,10%,16%)" x1="525.20282" x2="526.92401" y1="465.90213" y2="527.0426" /><line stroke="rgb(10%,10%,16%)" x1="525.20282" x2="531.78491" y1="465.90213" y2="348.16064" /><line stroke="rgb(10%,10%,16%)" x1="241.10176" x2="241.97827" y1="458.01749" y2="526.39673" /><line stroke="rgb(10%,10%,16%)" x1="241.10176" x2="238.46983" y1="458.01749" y2="398.90225" /><line stroke="rgb(10%,10%,16%)" x1="845.54907" x2="848.7171" y1="460.40265" y2="520.2373" /><line stroke="rgb(10%,10%,16%)" x1="2085.6877" x2="2092.1411" y1="1415.9419" y2="1468.1172" /><line stroke="rgb(10%,10%,16%)" x1="2285.0449" x2="2287.5503" y1="1417.3167" y2="1471.0338" /><line stroke="rgb(10%,10%,16%)" x1="2233.1079" x2="2236.9966" y1="1089.9374" y2="832.30853" /><line stroke="rgb(10%,10%,16%)" x1="2233.1079" x2="2183.304" y1="1089.9374" y2="1069.4729" /><line stroke="rgb(10%,10%,16%)" x1="2233.1079" x2="2229.2192" y1="1089.9374" y2="1327.1505" /><line stroke="rgb(10%,10%,16%)" x1="2233.1079" x2="2280.9202" y1="1089.9374" y2="1110.7192" /><line stroke="rgb(10%,10%,16%)" x1="628.03119" x2="733.02716" y1="529.95917" y2="513.43201" /><line stroke="rgb(10%,10%,16%)" x1="628.03119" x2="526.92401" y1="529.95917" y2="527.0426" /><line stroke="rgb(10%,10%,16%)" x1="628.03119" x2="624.19397" y1="529.95917" y2="580.01691" /><line stroke="rgb(10%,10%,16%)" x1="2235.0522" x2="2228.2468" y1="593.15112" y2="406.4917" /><line stroke="rgb(10%,10%,16%)" x1="2235.0522" x2="2283.6699" y1="593.15112" y2="591.01593" /><line stroke="rgb(10%,10%,16%)" x1="2235.0522" x2="2232.1357" y1="593.15112" y2="689.3974" /><line stroke="rgb(10%,10%,16%)" x1="2237.9688" x2="2233.1079" y1="176.08397" y2="274.2746" /><line stroke="rgb(10%,10%,16%)" x1="2237.9688" x2="2150.4722" y1="176.08397" y2="147.89062" /><line stroke="rgb(10%,10%,16%)" x1="2237.9688" x2="2289.1694" y1="176.08397" y2="166.17905" /><line stroke="rgb(10%,10%,16%)" x1="526.92401" x2="529.32745" y1="527.0426" y2="580.01691" /><line stroke="rgb(10%,10%,16%)" x1="526.92401" x2="438.45523" y1="527.0426" y2="526.07037" /><line stroke="rgb(10%,10%,16%)" x1="2287.5503" x2="2331.7905" y1="1541.031" y2="1543.8053" /><line stroke="rgb(10%,10%,16%)" x1="2287.5503" x2="2287.5503" y1="1541.031" y2="1471.0338" /><line stroke="rgb(10%,10%,16%)" x1="2287.5503" x2="2227.2747" y1="1541.031" y2="1553.6694" /><line stroke="rgb(10%,10%,16%)" x1="340.96939" x2="309.15469" y1="691.3819" y2="647.59344" /><line stroke="rgb(10%,10%,16%)" x1="848.7171" x2="960.51831" y1="520.2373" y2="525.09821" /><line stroke="rgb(10%,10%,16%)" x1="848.7171" x2="733.02716" y1="520.2373" y2="513.43201" /><line stroke="rgb(10%,10%,16%)" x1="2280.9202" x2="2229.2192" y1="1322.4502" y2="1327.1505" /><line stroke="rgb(10%,10%,16%)" x1="2170.9302" x2="2242.8296" y1="1963.1427" y2="1950.3207" /><line stroke="rgb(10%,10%,16%)" x1="2170.9302" x2="2146.1824" y1="1963.1427" y2="1982.391" /><line stroke="rgb(10%,10%,16%)" x1="2170.9302" x2="2136.8616" y1="1963.1427" y2="1934.7657" /><line stroke="rgb(10%,10%,16%)" x1="2229.2192" x2="2180.5542" y1="1685.8866" y2="1685.4176" /><line stroke="rgb(10%,10%,16%)" x1="2229.2192" x2="2231.1636" y1="1685.8866" y2="1656.7209" /><line stroke="rgb(10%,10%,16%)" x1="2229.2192" x2="2236.0244" y1="1685.8866" y2="1833.6586" /><line stroke="rgb(10%,10%,16%)" x1="2302.9182" x2="2242.8296" y1="1946.6442" y2="1950.3207" /><line stroke="rgb(10%,10%,16%)" x1="1263.8398" x2="1269.0111" y1="529.95917" y2="580.01691" /><line stroke="rgb(10%,10%,16%)" x1="1263.8398" x2="1263.5116" y1="529.95917" y2="467.27701" /><line stroke="rgb(10%,10%,16%)" x1="1263.8398" x2="1162.7327" y1="529.95917" y2="530.93134" /><line stroke="rgb(10%,10%,16%)" x1="1155.9274" x2="1053.848" y1="1749.0785" y2="1747.1342" /><line stroke="rgb(10%,10%,16%)" x1="1155.9274" x2="1231.7578" y1="1749.0785" y2="1749.0785" /><line stroke="rgb(10%,10%,16%)" x1="1155.9274" x2="1154.8962" y1="1749.0785" y2="1682.6678" /><line stroke="rgb(10%,10%,16%)" x1="325.84573" x2="327.8793" y1="1816.0309" y2="1749.2527" /><line stroke="rgb(10%,10%,16%)" x1="2236.9966" x2="2232.1357" y1="832.30853" y2="689.3974" /><line stroke="rgb(10%,10%,16%)" x1="2236.9966" x2="2282.2952" y1="832.30853" y2="828.86957" /><line stroke="rgb(10%,10%,16%)" x1="2183.304" x2="2225.3303" y1="1473.6866" y2="1480.7556" /><line stroke="rgb(10%,10%,16%)" x1="2183.304" x2="2092.1411" y1="1473.6866" y2="1468.1172" /><line stroke="rgb(10%,10%,16%)" x1="1164.5204" x2="1162.7327" y1="472.77652" y2="530.93134" /><line stroke="rgb(10%,10%,16%)" x1="980.28699" x2="962.46271" y1="777.99915" y2="590.23456" /><line stroke="rgb(10%,10%,16%)" x1="980.28699" x2="941.07465" y1="777.99915" y2="775.92181" /><line stroke="rgb(10%,10%,16%)" x1="779.69202" x2="666.91858" y1="1749.0785" y2="1747.1342" /><line stroke="rgb(10%,10%,16%)" x1="779.69202" x2="887.60449" y1="1749.0785" y2="1744.2177" /><line stroke="rgb(10%,10%,16%)" x1="779.69202" x2="783.67963" y1="1749.0785" y2="1806.4067" /><line stroke="rgb(10%,10%,16%)" x1="1749.9321" x2="1747.4681" y1="1839.4917" y2="1891.6492" /><line stroke="rgb(10%,10%,16%)" x1="1749.9321" x2="1645.7272" y1="1839.4917" y2="1839.4038" /><line stroke="rgb(10%,10%,16%)" x1="1749.9321" x2="1898.6764" y1="1839.4917" y2="1850.1857" /><line stroke="rgb(10%,10%,16%)" x1="2242.8296" x2="2236.0244" y1="1950.3207" y2="1833.6586" /><line stroke="rgb(10%,10%,16%)" x1="666.91858" x2="571.64453" y1="1747.1342" y2="1749.0785" /><line stroke="rgb(10%,10%,16%)" x1="666.91858" x2="666.81512" y1="1747.1342" y2="1685.4176" /><line stroke="rgb(10%,10%,16%)" x1="432.6221" x2="433.08612" y1="1749.0785" y2="1809.1565" /><line stroke="rgb(10%,10%,16%)" x1="432.6221" x2="438.58563" y1="1749.0785" y2="1685.4176" /><line stroke="rgb(10%,10%,16%)" x1="1053.848" x2="1058.6549" y1="1747.1342" y2="1684.0427" /><line stroke="rgb(10%,10%,16%)" x1="1053.848" x2="977.04547" y1="1747.1342" y2="1748.1063" /><line stroke="rgb(10%,10%,16%)" x1="1231.7578" x2="1234.6392" y1="1749.0785" y2="1685.4176" /><line stroke="rgb(10%,10%,16%)" x1="1231.7578" x2="1261.8955" y1="1749.0785" y2="1751.0229" /><line stroke="rgb(10%,10%,16%)" x1="571.64453" x2="576.0733" y1="1749.0785" y2="1813.2811" /><line stroke="rgb(10%,10%,16%)" x1="571.64453" x2="327.8793" y1="1749.0785" y2="1749.2527" /><line stroke="rgb(10%,10%,16%)" x1="1898.6764" x2="1900.0793" y1="1850.1857" y2="1902.6481" /><line stroke="rgb(10%,10%,16%)" x1="1898.6764" x2="2017.283" y1="1850.1857" y2="1866.7129" /><line stroke="rgb(10%,10%,16%)" x1="887.60449" x2="977.04547" y1="1744.2177" y2="1748.1063" /><line stroke="rgb(10%,10%,16%)" x1="887.60449" x2="888.17023" y1="1744.2177" y2="1681.293" /><line stroke="rgb(10%,10%,16%)" x1="977.04547" x2="973.4126" y1="1748.1063" y2="1816.0309" /><line stroke="rgb(10%,10%,16%)" x1="2169.5552" x2="2232.1357" y1="680.38287" y2="689.3974" /><line stroke="rgb(10%,10%,16%)" x1="1065.5293" x2="1066.4865" y1="577.26715" y2="525.09821" /><line stroke="rgb(10%,10%,16%)" x1="1284.1346" x2="1234.6392" y1="1684.0427" y2="1685.4176" /><line stroke="rgb(10%,10%,16%)" x1="438.45523" x2="316.93216" y1="526.07037" y2="524.12604" /><line stroke="rgb(10%,10%,16%)" x1="438.45523" x2="442.71024" y1="526.07037" y2="578.64203" /><line stroke="rgb(10%,10%,16%)" x1="438.45523" x2="435.83588" y1="526.07037" y2="471.40164" /><line stroke="rgb(10%,10%,16%)" x1="188.35809" x2="246.24405" y1="1748.662" y2="1735.8699" /><line stroke="rgb(10%,10%,16%)" x1="531.78491" x2="599.44617" y1="348.16064" y2="344.91299" /><line stroke="rgb(10%,10%,16%)" x1="962.46271" x2="960.51831" y1="590.23456" y2="525.09821" /><line stroke="rgb(10%,10%,16%)" x1="962.46271" x2="892.29486" y1="590.23456" y2="589.64105" /><line stroke="rgb(10%,10%,16%)" x1="1261.8955" x2="1262.1367" y1="1751.0229" y2="1811.9062" /><line stroke="rgb(10%,10%,16%)" x1="1261.8955" x2="1344.5312" y1="1751.0229" y2="1742.2733" /><line stroke="rgb(10%,10%,16%)" x1="2233.1079" x2="2228.2468" y1="274.2746" y2="406.4917" /><line stroke="rgb(10%,10%,16%)" x1="2233.1079" x2="2283.6699" y1="274.2746" y2="269.2948" /><line stroke="rgb(10%,10%,16%)" x1="2233.1079" x2="2186.0537" y1="274.2746" y2="262.42041" /><line stroke="rgb(10%,10%,16%)" x1="2236.0244" x2="2287.7947" y1="1833.6586" y2="1827.0299" /><line stroke="rgb(10%,10%,16%)" x1="2236.0244" x2="2190.1782" y1="1833.6586" y2="1846.2782" /><line stroke="rgb(10%,10%,16%)" x1="1066.4865" x2="960.51831" y1="525.09821" y2="525.09821" /><line stroke="rgb(10%,10%,16%)" x1="1066.4865" x2="1162.7327" y1="525.09821" y2="530.93134" /><line stroke="rgb(10%,10%,16%)" x1="1066.4865" x2="1062.7795" y1="525.09821" y2="467.27701" /><line stroke="rgb(10%,10%,16%)" x1="2225.3303" x2="2229.2192" y1="1480.7556" y2="1327.1505" /><line stroke="rgb(10%,10%,16%)" x1="2225.3303" x2="2227.2747" y1="1480.7556" y2="1553.6694" /><line stroke="rgb(10%,10%,16%)" x1="960.51831" x2="959.66382" y1="525.09821" y2="470.02676" /><line stroke="rgb(10%,10%,16%)" x1="316.93216" x2="241.97827" y1="524.12604" y2="526.39673" /><line stroke="rgb(10%,10%,16%)" x1="316.93216" x2="309.15469" y1="524.12604" y2="647.59344" /><line stroke="rgb(10%,10%,16%)" x1="316.93216" x2="316.22162" y1="524.12604" y2="460.40265" /><line stroke="rgb(10%,10%,16%)" x1="2282.2952" x2="2297.4187" y1="828.86957" y2="767.00012" /><line stroke="rgb(10%,10%,16%)" x1="2157.1814" x2="2150.4722" y1="192.30171" y2="147.89062" /><line stroke="rgb(10%,10%,16%)" x1="2154.4316" x2="2175.0547" y1="1228.9586" y2="1323.8251" /><line stroke="rgb(10%,10%,16%)" x1="2175.0547" x2="2229.2192" y1="1323.8251" y2="1327.1505" /><line stroke="rgb(10%,10%,16%)" x1="2227.2747" x2="2231.1636" y1="1553.6694" y2="1656.7209" /><line stroke="rgb(10%,10%,16%)" x1="221.35512" x2="309.15469" y1="662.50946" y2="647.59344" /><line stroke="rgb(10%,10%,16%)" x1="734.18408" x2="733.02716" y1="468.65189" y2="513.43201" /><line stroke="rgb(10%,10%,16%)" x1="2190.1782" x2="2017.283" y1="1846.2782" y2="1866.7129" /><line stroke="rgb(10%,10%,16%)" x1="2280.9202" x2="2231.1636" y1="1653.7955" y2="1656.7209" /><line stroke="rgb(10%,10%,16%)" x1="1344.5312" x2="1401.8901" y1="1742.2733" y2="1734.4957" /><line stroke="rgb(10%,10%,16%)" x1="246.24405" x2="327.8793" y1="1735.8699" y2="1749.2527" /><line stroke="rgb(10%,10%,16%)" x1="2228.2468" x2="2180.5542" y1="406.4917" y2="405.40756" /><line stroke="rgb(10%,10%,16%)" x1="327.8793" x2="327.8793" y1="1749.2527" y2="1749.2527" /></svg>