<?xml version="1.0" encoding="utf-8" ?>
<svg baseProfile="full" height="100%" version="1.1" width="100%" xmlns="http://www.w3.org/2000/svg" xmlns:ev="http://www.w3.org/2001/xml-events" xmlns:xlink="http://www.w3.org/1999/xlink"><defs /><line stroke="rgb(10%,10%,16%)" x1="601.85809" x2="807.0" y1="1868.0126" y2="1869.5474" /><line stroke="rgb(10%,10%,16%)" x1="601.85809" x2="605.28339" y1="1868.0126" y2="1944.4153" /><line stroke="rgb(10%,10%,16%)" x1="601.85809" x2="604.0" y1="1868.0126" y2="1753.5474" /><line stroke="rgb(10%,10%,16%)" x1="601.85809" x2="545.0" y1="1868.0126" y2="1866.5474" /><line stroke="rgb(10%,10%,16%)" x1="346.4823" x2="351.0" y1="1781.7808" y2="1863.5474" /><line stroke="rgb(10%,10%,16%)" x1="2315.0676" x2="2379.0" y1="1053.4608" y2="1057.5474" /><line stroke="rgb(10%,10%,16%)" x1="1572.0" x2="1573.0" y1="1986.5474" y2="1883.5474" /><line stroke="rgb(10%,10%,16%)" x1="1572.0" x2="1698.0" y1="1986.5474" y2="1983.5474" /><line stroke="rgb(10%,10%,16%)" x1="1036.0" x2="946.0" y1="979.54736" y2="963.54736" /><line stroke="rgb(10%,10%,16%)" x1="1036.0" x2="1052.1748" y1="979.54736" y2="945.98059" /><line stroke="rgb(10%,10%,16%)" x1="1036.0" x2="1036.0" y1="979.54736" y2="1067.5474" /><line stroke="rgb(10%,10%,16%)" x1="2378.0" x2="2377.0" y1="725.54742" y2="875.54742" /><line stroke="rgb(10%,10%,16%)" x1="2378.0" x2="2372.0" y1="725.54742" y2="612.54742" /><line stroke="rgb(10%,10%,16%)" x1="2378.0" x2="2322.1387" y1="725.54742" y2="722.53485" /><line stroke="rgb(10%,10%,16%)" x1="1036.0" x2="1041.0" y1="1495.5474" y2="1288.5474" /><line stroke="rgb(10%,10%,16%)" x1="1036.0" x2="1030.0" y1="1495.5474" y2="1604.5474" /><line stroke="rgb(10%,10%,16%)" x1="1036.0" x2="969.0" y1="1495.5474" y2="1497.5474" /><line stroke="rgb(10%,10%,16%)" x1="804.6875" x2="807.0" y1="1948.658" y2="1869.5474" /><line stroke="rgb(10%,10%,16%)" x1="2326.3813" x2="2377.0" y1="434.03528" y2="435.54739" /><line stroke="rgb(10%,10%,16%)" x1="1342.0886" x2="1284.0" y1="1961.3859" y2="1946.5474" /><line stroke="rgb(10%,10%,16%)" x1="2385.0" x2="2388.0" y1="1413.5474" y2="1384.5474" /><line stroke="rgb(10%,10%,16%)" x1="2385.0" x2="2379.0" y1="1413.5474" y2="1523.5474" /><line stroke="rgb(10%,10%,16%)" x1="2385.0" x2="2332.0381" y1="1413.5474" y2="1409.8427" /><line stroke="rgb(10%,10%,16%)" x1="2326.3813" x2="2380.0" y1="1173.6689" y2="1182.5474" /><line stroke="rgb(10%,10%,16%)" x1="971.5647" x2="969.0" y1="1419.7421" y2="1497.5474" /><line stroke="rgb(10%,10%,16%)" x1="914.99615" x2="969.0" y1="1496.1096" y2="1497.5474" /><line stroke="rgb(10%,10%,16%)" x1="1357.645" x2="1319.0" y1="1787.4376" y2="1785.5474" /><line stroke="rgb(10%,10%,16%)" x1="991.36371" x2="1036.0" y1="1064.7745" y2="1067.5474" /><line stroke="rgb(10%,10%,16%)" x1="987.12103" x2="1037.0" y1="1159.5269" y2="1162.5474" /><line stroke="rgb(10%,10%,16%)" x1="552.95746" x2="605.28339" y1="2071.6946" y2="1944.4153" /><line stroke="rgb(10%,10%,16%)" x1="496.38895" x2="545.0" y1="1780.3666" y2="1777.5474" /><line stroke="rgb(10%,10%,16%)" x1="968.73627" x2="1030.0" y1="1605.004" y2="1604.5474" /><line stroke="rgb(10%,10%,16%)" x1="1124.2998" x2="1125.0" y1="1795.923" y2="1850.5474" /><line stroke="rgb(10%,10%,16%)" x1="2431.033" x2="2375.0" y1="899.31152" y2="899.54742" /><line stroke="rgb(10%,10%,16%)" x1="1981.3131" x2="1978.0" y1="2040.5819" y2="1981.5474" /><line stroke="rgb(10%,10%,16%)" x1="351.0" x2="270.92075" y1="1863.5474" y2="1855.8251" /><line stroke="rgb(10%,10%,16%)" x1="351.0" x2="405.0" y1="1863.5474" y2="1865.5474" /><line stroke="rgb(10%,10%,16%)" x1="1978.0" x2="1698.0" y1="1981.5474" y2="1983.5474" /><line stroke="rgb(10%,10%,16%)" x1="1978.0" x2="2380.0" y1="1981.5474" y2="1962.5474" /><line stroke="rgb(10%,10%,16%)" x1="405.0" x2="398.80823" y1="1865.5474" y2="1950.0721" /><line stroke="rgb(10%,10%,16%)" x1="405.0" x2="545.0" y1="1865.5474" y2="1866.5474" /><line stroke="rgb(10%,10%,16%)" x1="2306.0" x2="2241.5283" y1="1875.5474" y2="1870.8762" /><line stroke="rgb(10%,10%,16%)" x1="2306.0" x2="2374.0" y1="1875.5474" y2="1873.5474" /><line stroke="rgb(10%,10%,16%)" x1="1573.0" x2="1494.8237" y1="1883.5474" y2="1848.2488" /><line stroke="rgb(10%,10%,16%)" x1="2432.4473" x2="2386.8577" y1="76.239265" y2="94.263123" /><line stroke="rgb(10%,10%,16%)" x1="2324.967" x2="2372.0" y1="607.98358" y2="612.54742" /><line stroke="rgb(10%,10%,16%)" x1="2320.7244" x2="2381.0" y1="1783.1949" y2="1782.5474" /><line stroke="rgb(10%,10%,16%)" x1="1440.0" x2="1316.0" y1="1852.5474" y2="1859.5474" /><line stroke="rgb(10%,10%,16%)" x1="1440.0" x2="1494.8237" y1="1852.5474" y2="1848.2488" /><line stroke="rgb(10%,10%,16%)" x1="218.0" x2="270.92075" y1="1854.5474" y2="1855.8251" /><line stroke="rgb(10%,10%,16%)" x1="2310.0" x2="2383.0" y1="2109.5474" y2="2047.5474" /><line stroke="rgb(10%,10%,16%)" x1="2310.0" x2="2307.9966" y1="2109.5474" y2="2064.6235" /><line stroke="rgb(10%,10%,16%)" x1="2316.0" x2="2317.896" y1="1524.5474" y2="1590.8619" /><line stroke="rgb(10%,10%,16%)" x1="2316.0" x2="2379.0" y1="1524.5474" y2="1523.5474" /><line stroke="rgb(10%,10%,16%)" x1="545.0" x2="545.0" y1="1866.5474" y2="1777.5474" /><line stroke="rgb(10%,10%,16%)" x1="1231.0" x2="1316.0" y1="1849.5474" y2="1859.5474" /><line stroke="rgb(10%,10%,16%)" x1="1231.0" x2="1238.8511" y1="1849.5474" y2="1937.3442" /><line stroke="rgb(10%,10%,16%)" x1="1231.0" x2="1238.8511" y1="1849.5474" y2="1793.0945" /><line stroke="rgb(10%,10%,16%)" x1="1231.0" x2="1125.0" y1="1849.5474" y2="1850.5474" /><line stroke="rgb(10%,10%,16%)" x1="2381.0" x2="2380.0" y1="1782.5474" y2="1746.5474" /><line stroke="rgb(10%,10%,16%)" x1="2381.0" x2="2374.0" y1="1782.5474" y2="1873.5474" /><line stroke="rgb(10%,10%,16%)" x1="1037.0" x2="1041.0" y1="1162.5474" y2="1288.5474" /><line stroke="rgb(10%,10%,16%)" x1="1037.0" x2="1036.0" y1="1162.5474" y2="1067.5474" /><line stroke="rgb(10%,10%,16%)" x1="2319.3103" x2="2377.0" y1="868.19885" y2="875.54742" /><line stroke="rgb(10%,10%,16%)" x1="2302.3396" x2="2386.0" y1="161.09207" y2="173.54741" /><line stroke="rgb(10%,10%,16%)" x1="2302.3396" x2="2304.2668" y1="161.09207" y2="208.03418" /><line stroke="rgb(10%,10%,16%)" x1="811.75854" x2="807.0" y1="1788.8518" y2="1869.5474" /><line stroke="rgb(10%,10%,16%)" x1="2431.033" x2="2450.0" y1="658.89526" y2="616.54742" /><line stroke="rgb(10%,10%,16%)" x1="2431.033" x2="2372.0" y1="658.89526" y2="612.54742" /><line stroke="rgb(10%,10%,16%)" x1="1817.2644" x2="1830.0" y1="2030.6824" y2="1978.5474" /><line stroke="rgb(10%,10%,16%)" x1="2429.6189" x2="2380.0" y1="1186.3969" y2="1182.5474" /><line stroke="rgb(10%,10%,16%)" x1="2433.8616" x2="2380.0" y1="1750.6681" y2="1746.5474" /><line stroke="rgb(10%,10%,16%)" x1="2431.033" x2="2379.0" y1="1070.4314" y2="1057.5474" /><line stroke="rgb(10%,10%,16%)" x1="2449.4177" x2="2388.0" y1="1381.5583" y2="1384.5474" /><line stroke="rgb(10%,10%,16%)" x1="2440.9326" x2="2386.0" y1="175.23421" y2="173.54741" /><line stroke="rgb(10%,10%,16%)" x1="2337.6951" x2="2386.8577" y1="86.138763" y2="94.263123" /><line stroke="rgb(10%,10%,16%)" x1="1316.0" x2="1319.0" y1="1859.5474" y2="1785.5474" /><line stroke="rgb(10%,10%,16%)" x1="1041.0" x2="978.63574" y1="1288.5474" y2="1283.9777" /><line stroke="rgb(10%,10%,16%)" x1="2379.0" x2="2389.0" y1="1523.5474" y2="1623.5474" /><line stroke="rgb(10%,10%,16%)" x1="1038.0" x2="807.0" y1="1843.5474" y2="1869.5474" /><line stroke="rgb(10%,10%,16%)" x1="1038.0" x2="1030.0" y1="1843.5474" y2="1604.5474" /><line stroke="rgb(10%,10%,16%)" x1="1038.0" x2="1125.0" y1="1843.5474" y2="1850.5474" /><line stroke="rgb(10%,10%,16%)" x1="2450.832" x2="2450.0" y1="535.85864" y2="616.54742" /><line stroke="rgb(10%,10%,16%)" x1="1238.8511" x2="1235.0" y1="1937.3442" y2="1993.5474" /><line stroke="rgb(10%,10%,16%)" x1="1238.8511" x2="1284.0" y1="1937.3442" y2="1946.5474" /><line stroke="rgb(10%,10%,16%)" x1="2386.8577" x2="2386.0" y1="94.263123" y2="173.54741" /><line stroke="rgb(10%,10%,16%)" x1="2438.104" x2="2389.0" y1="1620.5604" y2="1623.5474" /><line stroke="rgb(10%,10%,16%)" x1="604.0" x2="606.69763" y1="1753.5474" y2="1712.4844" /><line stroke="rgb(10%,10%,16%)" x1="2374.0" x2="2380.0" y1="1873.5474" y2="1962.5474" /><line stroke="rgb(10%,10%,16%)" x1="2380.0" x2="2440.9326" y1="1962.5474" y2="1950.0721" /><line stroke="rgb(10%,10%,16%)" x1="2380.0" x2="2383.0" y1="1962.5474" y2="2047.5474" /><line stroke="rgb(10%,10%,16%)" x1="1698.0" x2="1705.5415" y1="1983.5474" y2="2046.2386" /><line stroke="rgb(10%,10%,16%)" x1="1698.0" x2="1698.0" y1="1983.5474" y2="1983.5474" /><line stroke="rgb(10%,10%,16%)" x1="2375.0" x2="2377.0" y1="899.54742" y2="875.54742" /><line stroke="rgb(10%,10%,16%)" x1="2375.0" x2="2379.0" y1="899.54742" y2="1057.5474" /><line stroke="rgb(10%,10%,16%)" x1="2389.0" x2="2380.0" y1="1623.5474" y2="1746.5474" /><line stroke="rgb(10%,10%,16%)" x1="2386.0" x2="2378.0" y1="173.54741" y2="286.54742" /><line stroke="rgb(10%,10%,16%)" x1="2378.0" x2="2329.2097" y1="286.54742" y2="282.71445" /><line stroke="rgb(10%,10%,16%)" x1="2378.0" x2="2377.0" y1="286.54742" y2="435.54739" /><line stroke="rgb(10%,10%,16%)" x1="2388.0" x2="2380.0" y1="1384.5474" y2="1182.5474" /><line stroke="rgb(10%,10%,16%)" x1="2377.0" x2="2372.0" y1="435.54739" y2="612.54742" /><line stroke="rgb(10%,10%,16%)" x1="2380.0" x2="2379.0" y1="1182.5474" y2="1057.5474" /><line stroke="rgb(10%,10%,16%)" x1="1146.9271" x2="1235.0" y1="1991.0844" y2="1993.5474" /><line stroke="rgb(10%,10%,16%)" x1="2455.0747" x2="2383.0" y1="2049.0671" y2="2047.5474" /></svg>